<svg width="362" height="45" viewBox="0 0 362 45" fill="none" xmlns="http://www.w3.org/2000/svg">
<line x1="359.5" y1="2.5" x2="2.5" y2="2.5" stroke="white" stroke-width="5" stroke-linecap="round"/>
<line x1="2.5" y1="42.5" x2="359.5" y2="42.5" stroke="white" stroke-width="5" stroke-linecap="round"/>
<line x1="2.5" y1="42.5" x2="2.5" y2="2.5" stroke="white" stroke-width="5" stroke-linecap="round"/>
<line x1="359.5" y1="2.5" x2="359.5" y2="42.5" stroke="white" stroke-width="5" stroke-linecap="round"/>
<line x1="3.89381" y1="41" x2="3.89381" y2="4" stroke="white" stroke-width="2.21239"/>
<line x1="39.1946" y1="41" x2="39.1946" y2="4" stroke="white" stroke-width="2.21239"/>
<line x1="74.4934" y1="41" x2="74.4934" y2="4" stroke="white" stroke-width="2.21239"/>
<line x1="109.794" y1="41" x2="109.794" y2="4" stroke="white" stroke-width="2.21239"/>
<line x1="145.093" y1="41" x2="145.093" y2="4" stroke="white" stroke-width="2.21239"/>
<line x1="180.394" y1="41" x2="180.394" y2="4" stroke="white" stroke-width="2.21239"/>
<line x1="215.695" y1="41" x2="215.695" y2="4" stroke="white" stroke-width="2.21239"/>
<line x1="250.993" y1="41" x2="250.993" y2="4" stroke="white" stroke-width="2.21239"/>
<line x1="286.294" y1="41" x2="286.294" y2="4" stroke="white" stroke-width="2.21239"/>
<line x1="321.593" y1="41" x2="321.593" y2="4" stroke="white" stroke-width="2.21239"/>
<line x1="356.894" y1="41" x2="356.894" y2="4" stroke="white" stroke-width="2.21239"/>
</svg>
