<svg width="253" height="745" viewBox="0 0 253 745" fill="none" xmlns="http://www.w3.org/2000/svg">
<line x1="243" y1="735" x2="243" y2="38" stroke="white" stroke-width="20" stroke-linecap="round"/>
<line x1="10" y1="38" x2="10" y2="735" stroke="white" stroke-width="20" stroke-linecap="round"/>
<line x1="191" y1="38" x2="243" y2="38" stroke="white" stroke-width="20" stroke-linecap="round"/>
<line x1="191" y1="10" x2="62" y2="10" stroke="white" stroke-width="20" stroke-linecap="round"/>
<line x1="191" y1="38" x2="191" y2="10" stroke="white" stroke-width="20" stroke-linecap="round"/>
<line x1="10" y1="38" x2="62" y2="38" stroke="white" stroke-width="20" stroke-linecap="round"/>
<line x1="243" y1="735" x2="10" y2="735" stroke="white" stroke-width="20" stroke-linecap="round"/>
<line x1="62" y1="10" x2="62" y2="38" stroke="white" stroke-width="20" stroke-linecap="round"/>
<line x1="72" y1="18" x2="181" y2="18" stroke="white" stroke-width="4"/>
<line x1="20" y1="88.5" x2="233" y2="88.5" stroke="white" stroke-width="4"/>
<line x1="20" y1="159" x2="233" y2="159" stroke="white" stroke-width="4"/>
<line x1="20" y1="229.5" x2="233" y2="229.5" stroke="white" stroke-width="4"/>
<line x1="20" y1="300" x2="233" y2="300" stroke="white" stroke-width="4"/>
<line x1="20" y1="370.5" x2="233" y2="370.5" stroke="white" stroke-width="4"/>
<line x1="20" y1="441" x2="233" y2="441" stroke="white" stroke-width="4"/>
<line x1="20" y1="511.5" x2="233" y2="511.5" stroke="white" stroke-width="4"/>
<line x1="20" y1="582" x2="233" y2="582" stroke="white" stroke-width="4"/>
<line x1="20" y1="652.5" x2="233" y2="652.5" stroke="white" stroke-width="4"/>
<line x1="20" y1="723" x2="233" y2="723" stroke="white" stroke-width="4"/>
</svg>
