<svg width="575" height="161" viewBox="0 0 575 161" fill="none" xmlns="http://www.w3.org/2000/svg">
<rect width="290" height="161" fill="black"/>
<rect x="289" y="80" width="106" height="81" fill="black"/>
<mask id="mask0_172_644" style="mask-type:alpha" maskUnits="userSpaceOnUse" x="0" y="0" width="575" height="162">
<path fill-rule="evenodd" clip-rule="evenodd" d="M0 0V161.009H276.117C276.248 161.01 276.379 161.011 276.51 161.011H476.39C476.521 161.011 476.652 161.01 476.783 161.009C476.931 161.007 477.079 161.004 477.227 161.001C484.003 160.832 490.573 158.613 496.054 154.632L561.363 107.189C579.546 93.9805 579.546 67.033 561.363 53.8249L496.054 6.38189C490.573 2.40046 484.003 0.181844 477.227 0.0127493C476.948 0.00579384 476.669 0.00230612 476.39 0.00230612H472.227V0H0ZM250.241 5H5V156.009H250.235L188.598 111.234C167.667 96.0293 167.667 64.9843 188.598 49.7796L250.241 5ZM477.227 155.999C482.949 155.831 488.491 153.946 493.115 150.586L558.425 103.143C573.858 91.9318 573.858 69.0817 558.425 57.8702L493.115 10.4272C488.491 7.06775 482.949 5.18242 477.227 5.01458V155.999ZM467.227 5.00231H276.51C270.492 5.00231 264.635 6.90417 259.785 10.4272L194.475 57.8702C179.042 69.0817 179.042 91.9318 194.475 103.143L259.785 150.586C264.537 154.039 270.257 155.934 276.147 156.009H467.227V5.00231Z" fill="#DDDDDD"/>
</mask>
<g mask="url(#mask0_172_644)">
<line x1="478" y1="2.5" y2="2.5" stroke="#BBBBBB" stroke-width="5"/>
<line y1="158.5" x2="478" y2="158.5" stroke="#BBBBBB" stroke-width="5"/>
<line x1="2.5" y1="156" x2="2.5" y2="5" stroke="#BBBBBB" stroke-width="5"/>
<rect x="477.25" width="97.75" height="161" fill="#BBBBBB"/>
</g>
<rect x="287.5" y="2.5" width="30" height="30" fill="black" stroke="#BBBBBB" stroke-width="5"/>
<path d="M296.049 27V24.396C297.729 23.2573 299.147 22.2307 300.305 21.316C301.481 20.3827 302.423 19.524 303.133 18.74C303.861 17.9373 304.383 17.1813 304.701 16.472C305.037 15.7627 305.205 15.0533 305.205 14.344C305.205 13.4853 304.943 12.7853 304.421 12.244C303.898 11.684 303.161 11.404 302.209 11.404C301.163 11.404 300.342 11.7587 299.745 12.468C299.166 13.1773 298.849 14.1853 298.793 15.492L295.461 14.232C295.554 12.9627 295.89 11.8893 296.469 11.012C297.066 10.116 297.869 9.43467 298.877 8.968C299.903 8.48267 301.079 8.24 302.405 8.24C303.543 8.24 304.523 8.39867 305.345 8.716C306.185 9.03333 306.875 9.472 307.417 10.032C307.977 10.5733 308.397 11.1987 308.677 11.908C308.957 12.6173 309.097 13.3547 309.097 14.12C309.097 15.3147 308.798 16.444 308.201 17.508C307.622 18.572 306.726 19.6267 305.513 20.672C304.299 21.7173 302.759 22.8187 300.893 23.976V24.004C301.173 23.9853 301.509 23.9667 301.901 23.948C302.311 23.9293 302.731 23.92 303.161 23.92C303.59 23.9013 303.963 23.892 304.281 23.892H309.377V27H296.049Z" fill="white"/>
</svg>
