<svg width="290" height="80" viewBox="0 0 290 80" fill="none" xmlns="http://www.w3.org/2000/svg">
<line x1="287.5" y1="50" x2="287.5" y2="5" stroke="#BBBBBB" stroke-width="5"/>
<line x1="290" y1="2.5" y2="2.5" stroke="#BBBBBB" stroke-width="5"/>
<line x1="2.5" y1="5" x2="2.5" y2="80" stroke="#BBBBBB" stroke-width="5"/>
<rect x="2.5" y="2.5" width="30" height="30" fill="black" stroke="#BBBBBB" stroke-width="5"/>
<path d="M17.5719 27.28C15.7239 27.28 14.1465 26.8973 12.8399 26.132C11.5519 25.348 10.6652 24.228 10.1799 22.772L13.8199 21.176C13.9505 21.848 14.1652 22.408 14.4639 22.856C14.7625 23.2853 15.1639 23.612 15.6679 23.836C16.1905 24.06 16.8065 24.172 17.5159 24.172C18.1505 24.172 18.6825 24.06 19.1119 23.836C19.5599 23.612 19.9052 23.2947 20.1479 22.884C20.3905 22.4733 20.5119 22.0067 20.5119 21.484C20.5119 20.924 20.3999 20.4667 20.1759 20.112C19.9705 19.7573 19.6532 19.5053 19.2239 19.356C18.7945 19.188 18.2532 19.104 17.5999 19.104C17.3572 19.104 17.1239 19.1133 16.8999 19.132C16.6945 19.132 16.4612 19.1507 16.1999 19.188V16.36C16.3492 16.3787 16.4985 16.3973 16.6479 16.416C16.8159 16.416 16.9839 16.416 17.1519 16.416C18.1972 16.416 18.9439 16.2107 19.3919 15.8C19.8585 15.3707 20.0919 14.6893 20.0919 13.756C20.0919 12.9907 19.8585 12.4027 19.3919 11.992C18.9439 11.5627 18.2999 11.348 17.4599 11.348C16.5639 11.348 15.8545 11.572 15.3319 12.02C14.8092 12.4493 14.4452 13.112 14.2399 14.008L10.7959 12.72C11.0199 11.7867 11.4492 10.984 12.0839 10.312C12.7372 9.64 13.5399 9.12667 14.4919 8.772C15.4439 8.39867 16.4985 8.212 17.6559 8.212C19.0372 8.212 20.1852 8.42667 21.0999 8.856C22.0332 9.28533 22.7332 9.87333 23.1999 10.62C23.6852 11.3667 23.9279 12.2253 23.9279 13.196C23.9279 13.9613 23.8065 14.6147 23.5639 15.156C23.3399 15.6787 23.0412 16.1267 22.6679 16.5C22.3132 16.8547 21.9399 17.1253 21.5479 17.312C21.1559 17.4987 20.7919 17.6107 20.4559 17.648V17.732C20.8852 17.7507 21.3239 17.844 21.7719 18.012C22.2199 18.1613 22.6305 18.3947 23.0039 18.712C23.3959 19.0293 23.7132 19.44 23.9559 19.944C24.1985 20.4293 24.3199 21.008 24.3199 21.68C24.3199 22.8 24.0212 23.7893 23.4239 24.648C22.8452 25.488 22.0519 26.1413 21.0439 26.608C20.0359 27.056 18.8785 27.28 17.5719 27.28Z" fill="white"/>
</svg>
