<svg width="575" height="161" viewBox="0 0 575 161" fill="none" xmlns="http://www.w3.org/2000/svg">
<path d="M468 0H575V81L567 63L527 32L487 4L468 0Z" fill="black"/>
<path d="M468 161H575V81L567 98.7778L527 129.395L487 157.049L468 161Z" fill="black"/>
<rect y="1.52588e-05" width="290" height="161" fill="black"/>
<rect x="289" y="80" width="106" height="81" fill="black"/>
<mask id="mask0_185_1432" style="mask-type:alpha" maskUnits="userSpaceOnUse" x="0" y="0" width="575" height="161">
<path fill-rule="evenodd" clip-rule="evenodd" d="M0 1.52588e-05V160.998H276.117C276.248 160.999 276.379 161 276.51 161H476.39C476.521 161 476.652 160.999 476.783 160.998C476.931 160.996 477.079 160.993 477.227 160.99C484.003 160.82 490.573 158.602 496.054 154.621L561.363 107.181C579.546 93.974 579.546 67.0283 561.363 53.8211L496.054 6.38146C490.573 2.40031 484.003 0.181846 477.227 0.0127637C476.948 0.0058087 476.669 0.00232122 476.39 0.00232122H472.227V1.52588e-05H0ZM250.241 4.99967H5V155.998H250.235L188.598 111.226C167.667 96.0226 167.667 64.9798 188.598 49.7761L250.241 4.99967ZM477.227 155.988C482.949 155.82 488.491 153.935 493.115 150.576L558.425 103.136C573.858 91.9254 573.858 69.0769 558.425 57.8661L493.115 10.4265C488.491 7.06727 482.949 5.18207 477.227 5.01424V155.988ZM467.227 5.00197H276.51C270.492 5.00197 264.635 6.90371 259.785 10.4265L194.475 57.8662C179.042 69.0769 179.042 91.9254 194.475 103.136L259.785 150.576C264.537 154.028 270.257 155.923 276.147 155.998H467.227V5.00197Z" fill="#DDDDDD"/>
</mask>
<g mask="url(#mask0_185_1432)">
<line x1="478" y1="2.50002" y2="2.50002" stroke="#BBBBBB" stroke-width="5"/>
<line y1="158.5" x2="478" y2="158.5" stroke="#BBBBBB" stroke-width="5"/>
<line x1="2.5" y1="156" x2="2.5" y2="5.00002" stroke="#BBBBBB" stroke-width="5"/>
<rect x="477.25" y="1.52588e-05" width="97.75" height="161" fill="#BBBBBB"/>
</g>
<rect x="287.5" y="2.50002" width="30" height="30" fill="black" stroke="#BBBBBB" stroke-width="5"/>
</svg>
