<svg width="395" height="76" viewBox="0 0 395 76" fill="none" xmlns="http://www.w3.org/2000/svg">
<line x1="392.5" y1="76" x2="392.5" stroke="#BBBBBB" stroke-width="5"/>
<line x1="258" y1="2.5" x2="5" y2="2.5" stroke="#BBBBBB" stroke-width="5"/>
<rect x="2.5" y="2.5" width="30" height="30" fill="black" stroke="#BBBBBB" stroke-width="5"/>
<path d="M17.1918 27V15.296C17.1918 14.8667 17.1918 14.428 17.1918 13.98C17.2104 13.5133 17.2291 13.0373 17.2478 12.552C16.6131 13.1307 15.9038 13.6347 15.1198 14.064C14.3358 14.4933 13.5331 14.792 12.7118 14.96L12.2078 11.712C12.6371 11.6747 13.1131 11.5533 13.6358 11.348C14.1771 11.124 14.7184 10.8627 15.2598 10.564C15.8198 10.2467 16.3238 9.92 16.7718 9.584C17.2384 9.22933 17.5931 8.87467 17.8358 8.52H20.9718V27H17.1918Z" fill="white"/>
</svg>
