<svg width="575" height="161" viewBox="0 0 575 161" fill="none" xmlns="http://www.w3.org/2000/svg">
<rect width="290" height="161" fill="black"/>
<rect x="289" y="80" width="106" height="81" fill="black"/>
<mask id="mask0_172_644" style="mask-type:alpha" maskUnits="userSpaceOnUse" x="0" y="0" width="575" height="162">
<path fill-rule="evenodd" clip-rule="evenodd" d="M0 0V161.009H276.117C276.248 161.01 276.379 161.011 276.51 161.011H476.39C476.521 161.011 476.652 161.01 476.783 161.009C476.931 161.007 477.079 161.004 477.227 161.001C484.003 160.832 490.573 158.613 496.054 154.632L561.363 107.189C579.546 93.9805 579.546 67.033 561.363 53.8249L496.054 6.38189C490.573 2.40046 484.003 0.181844 477.227 0.0127493C476.948 0.00579384 476.669 0.00230612 476.39 0.00230612H472.227V0H0ZM250.241 5H5V156.009H250.235L188.598 111.234C167.667 96.0293 167.667 64.9843 188.598 49.7796L250.241 5ZM477.227 155.999C482.949 155.831 488.491 153.946 493.115 150.586L558.425 103.143C573.858 91.9318 573.858 69.0817 558.425 57.8702L493.115 10.4272C488.491 7.06775 482.949 5.18242 477.227 5.01458V155.999ZM467.227 5.00231H276.51C270.492 5.00231 264.635 6.90417 259.785 10.4272L194.475 57.8702C179.042 69.0817 179.042 91.9318 194.475 103.143L259.785 150.586C264.537 154.039 270.257 155.934 276.147 156.009H467.227V5.00231Z" fill="#DDDDDD"/>
</mask>
<g mask="url(#mask0_172_644)">
<line x1="478" y1="2.5" y2="2.5" stroke="#BBBBBB" stroke-width="5"/>
<line y1="158.5" x2="478" y2="158.5" stroke="#BBBBBB" stroke-width="5"/>
<line x1="2.5" y1="156" x2="2.5" y2="5" stroke="#BBBBBB" stroke-width="5"/>
<rect x="477.25" width="97.75" height="161" fill="#BBBBBB"/>
</g>
<rect x="287.5" y="2.5" width="30" height="30" fill="black" stroke="#BBBBBB" stroke-width="5"/>
</svg>
