<svg width="110" height="61" viewBox="0 0 110 61" fill="none" xmlns="http://www.w3.org/2000/svg">
<mask id="mask0_172_675" style="mask-type:alpha" maskUnits="userSpaceOnUse" x="-1" y="-1" width="112" height="63">
<path d="M110 30.0055C110 46.5752 85.3757 60.0076 55 60.0076C24.6243 60.0076 0 46.5752 0 30.0055C0 13.4358 24.6243 0.00341797 55 0.00341797C85.3757 0.00341797 110 13.4358 110 30.0055Z" fill="white"/>
<path d="M0 0.00341797H55V60.0076H0V0.00341797Z" fill="white"/>
<path d="M55 60.0076C85.3757 60.0076 110 46.5752 110 30.0055C110 13.4358 85.3757 0.00341797 55 0.00341797M55 60.0076C24.6243 60.0076 0 46.5752 0 30.0055C0 13.4358 24.6243 0.00341797 55 0.00341797M55 60.0076V0.00341797M55 60.0076H0V0.00341797H55" stroke="white" stroke-width="2"/>
</mask>
<g mask="url(#mask0_172_675)">
<mask id="path-3-inside-1_172_675" fill="white">
<path d="M55 0.00341797C69.5869 0.00341806 83.5764 3.16434 93.8909 8.79083C104.205 14.4173 110 22.0485 110 30.0055C110 37.9626 104.205 45.5937 93.8909 51.2202C83.5764 56.8467 69.5869 60.0076 55 60.0076L55 30.0055L55 0.00341797Z"/>
</mask>
<path d="M55 0.00341797C69.5869 0.00341806 83.5764 3.16434 93.8909 8.79083C104.205 14.4173 110 22.0485 110 30.0055C110 37.9626 104.205 45.5937 93.8909 51.2202C83.5764 56.8467 69.5869 60.0076 55 60.0076L55 30.0055L55 0.00341797Z" fill="#0F0F0F" stroke="#BBBBBB" stroke-width="10" mask="url(#path-3-inside-1_172_675)"/>
<rect x="2.5" y="2.50342" width="50" height="55.0042" fill="#222222" stroke="#BBBBBB" stroke-width="5"/>
<rect x="45.1934" y="5.00366" width="9.37984" height="50.0035" fill="#222222"/>
<path d="M6.03288 22.1032C9.8362 16.5243 17.5418 11.779 27.7955 8.7014C38.0491 5.62376 50.1945 4.41073 62.097 5.2755C73.9995 6.14027 84.8974 9.02751 92.8753 13.4298C100.853 17.832 105.4 23.4675 105.718 29.3458C106.035 35.2241 102.103 40.969 94.6111 45.5707C87.1195 50.1725 76.5484 53.3366 64.7558 54.507C52.9632 55.6773 40.7038 54.779 30.1322 51.9699C19.5607 49.1609 11.3536 44.6208 6.95338 39.1477L54.5729 30.0054L6.03288 22.1032Z" fill="#222222"/>
</g>
</svg>
