<svg width="875" height="802" viewBox="0 0 875 802" fill="none" xmlns="http://www.w3.org/2000/svg">
<mask id="mask0_172_511" style="mask-type:alpha" maskUnits="userSpaceOnUse" x="0" y="0" width="875" height="802">
<rect width="875" height="801.991" fill="#C4C4C4"/>
</mask>
<g mask="url(#mask0_172_511)">
<rect width="875.337" height="875.337" fill="black"/>
<rect x="412.988" y="18.2233" width="5.38669" height="840.323" rx="2.69334" transform="rotate(-3 412.988 18.2233)" fill="white"/>
<rect x="391.07" y="20.0896" width="5.38669" height="840.323" rx="2.69334" transform="rotate(-6 391.07 20.0896)" fill="white"/>
<rect x="369.281" y="23.1006" width="5.38669" height="840.323" rx="2.69334" transform="rotate(-9 369.281 23.1006)" fill="white"/>
<rect x="522.391" y="26.1281" width="5.38669" height="840.323" rx="2.69334" transform="rotate(12 522.391 26.1281)" fill="white"/>
<rect x="500.736" y="22.2583" width="5.38669" height="840.323" rx="2.69334" transform="rotate(9 500.736 22.2583)" fill="white"/>
<rect x="478.908" y="19.5269" width="5.38669" height="840.323" rx="2.69334" transform="rotate(6 478.908 19.5269)" fill="white"/>
<rect x="456.969" y="17.9415" width="5.38669" height="840.323" rx="2.69334" transform="rotate(3 456.969 17.9415)" fill="white"/>
<rect x="347.678" y="27.248" width="5.38669" height="840.323" rx="2.69334" transform="rotate(-12 347.678 27.248)" fill="white"/>
<rect x="206.572" y="86.7576" width="5.38669" height="840.323" rx="2.69334" transform="rotate(-33 206.572 86.7576)" fill="white"/>
<rect x="188.525" y="99.333" width="5.38669" height="840.323" rx="2.69334" transform="rotate(-36 188.525 99.333)" fill="white"/>
<rect x="171.158" y="112.836" width="5.38669" height="840.323" rx="2.69334" transform="rotate(-39 171.158 112.836)" fill="white"/>
<rect x="305.27" y="38.9028" width="5.38669" height="840.323" rx="2.69334" transform="rotate(-18 305.27 38.9028)" fill="white"/>
<rect x="284.58" y="46.3785" width="5.38669" height="840.323" rx="2.69334" transform="rotate(-21 284.58 46.3785)" fill="white"/>
<rect x="264.312" y="54.9266" width="5.38669" height="840.323" rx="2.69334" transform="rotate(-24 264.312 54.9266)" fill="white"/>
<rect x="244.518" y="64.524" width="5.38669" height="840.323" rx="2.69334" transform="rotate(-27 244.518 64.524)" fill="white"/>
<rect x="154.523" y="127.229" width="5.38669" height="840.323" rx="2.69334" transform="rotate(-42 154.523 127.229)" fill="white"/>
<rect x="626.018" y="62.0789" width="5.38669" height="840.323" rx="2.69334" transform="rotate(27 626.018 62.0789)" fill="white"/>
<rect x="606.102" y="52.7362" width="5.38669" height="840.323" rx="2.69334" transform="rotate(24 606.102 52.7362)" fill="white"/>
<rect x="585.727" y="44.4484" width="5.38669" height="840.323" rx="2.69334" transform="rotate(21 585.727 44.4484)" fill="white"/>
<rect x="716.811" y="123.625" width="5.38669" height="840.323" rx="2.69334" transform="rotate(42 716.811 123.625)" fill="white"/>
<rect x="699.992" y="109.447" width="5.38669" height="840.323" rx="2.69334" transform="rotate(39 699.992 109.447)" fill="white"/>
<rect x="682.455" y="96.1676" width="5.38669" height="840.323" rx="2.69334" transform="rotate(36 682.455 96.1676)" fill="white"/>
<rect x="664.246" y="83.8245" width="5.38669" height="840.323" rx="2.69334" transform="rotate(33 664.246 83.8245)" fill="white"/>
<rect x="564.943" y="37.2386" width="5.38669" height="840.323" rx="2.69334" transform="rotate(18 564.943 37.2386)" fill="white"/>
<rect x="788.578" y="206.573" width="5.38669" height="840.323" rx="2.69334" transform="rotate(57 788.578 206.573)" fill="white"/>
<rect x="776.002" y="188.525" width="5.38669" height="840.323" rx="2.69334" transform="rotate(54 776.002 188.525)" fill="white"/>
<rect x="762.5" y="171.159" width="5.38669" height="840.323" rx="2.69334" transform="rotate(51 762.5 171.159)" fill="white"/>
<rect x="836.434" y="305.27" width="5.38669" height="840.323" rx="2.69334" transform="rotate(72 836.434 305.27)" fill="white"/>
<rect x="828.957" y="284.581" width="5.38669" height="840.323" rx="2.69334" transform="rotate(69 828.957 284.581)" fill="white"/>
<rect x="820.408" y="264.313" width="5.38669" height="840.323" rx="2.69334" transform="rotate(66 820.408 264.313)" fill="white"/>
<rect x="810.812" y="244.519" width="5.38669" height="840.323" rx="2.69334" transform="rotate(63 810.812 244.519)" fill="white"/>
<rect x="748.107" y="154.524" width="5.38669" height="840.323" rx="2.69334" transform="rotate(48 748.107 154.524)" fill="white"/>
<rect x="856.182" y="413.038" width="5.38669" height="839.39" rx="2.69334" transform="rotate(87 856.182 413.038)" fill="white"/>
<rect x="854.395" y="391.16" width="5.38669" height="839.467" rx="2.69334" transform="rotate(84 854.395 391.16)" fill="white"/>
<rect x="851.893" y="369.334" width="5.38669" height="839.977" rx="2.69334" transform="rotate(81 851.893 369.334)" fill="white"/>
<rect x="847.891" y="522.11" width="5.38669" height="838.978" rx="2.69334" transform="rotate(102 847.891 522.11)" fill="white"/>
<rect x="851.35" y="500.462" width="5.38669" height="838.573" rx="2.69334" transform="rotate(99 851.35 500.462)" fill="white"/>
<rect x="854.598" y="478.781" width="5.38669" height="839.105" rx="2.69334" transform="rotate(96 854.598 478.781)" fill="white"/>
<rect x="855.188" y="456.852" width="5.38669" height="838.114" rx="2.69334" transform="rotate(93 855.188 456.852)" fill="white"/>
<rect x="847.654" y="347.77" width="5.38669" height="839.879" rx="2.69334" transform="rotate(78 847.654 347.77)" fill="white"/>
<rect x="812.025" y="625.39" width="5.38669" height="838.941" rx="2.69334" transform="rotate(117 812.025 625.39)" fill="white"/>
<rect x="821.85" y="605.769" width="5.38669" height="839.502" rx="2.69334" transform="rotate(114 821.85 605.769)" fill="white"/>
<rect x="830.109" y="585.428" width="5.38669" height="839.491" rx="2.69334" transform="rotate(111 830.109 585.428)" fill="white"/>
<rect x="750.986" y="716.157" width="5.38669" height="839.349" rx="2.69334" transform="rotate(132 750.986 716.157)" fill="white"/>
<rect x="764.375" y="698.764" width="5.38669" height="838.373" rx="2.69334" transform="rotate(129 764.375 698.764)" fill="white"/>
<rect x="778.223" y="681.767" width="5.38669" height="839.154" rx="2.69334" transform="rotate(126 778.223 681.767)" fill="white"/>
<rect x="790.248" y="663.425" width="5.38669" height="838.817" rx="2.69334" transform="rotate(123 790.248 663.425)" fill="white"/>
<rect x="836.926" y="564.563" width="5.38669" height="839.093" rx="2.69334" transform="rotate(108 836.926 564.563)" fill="white"/>
<circle cx="436.994" cy="436.995" r="387.168" fill="black"/>
<rect x="799.52" y="224.089" width="8.08003" height="840.323" rx="4.04002" transform="rotate(60 799.52 224.089)" fill="white"/>
<rect x="856.484" y="433.628" width="8.08003" height="838.977" rx="4.04001" transform="rotate(90 856.484 433.628)" fill="white"/>
<rect x="802.92" y="643.881" width="8.08003" height="839.584" rx="4.04002" transform="rotate(120 802.92 643.881)" fill="white"/>
<rect x="224.088" y="75.8177" width="8.08003" height="840.323" rx="4.04002" transform="rotate(-30 224.088 75.8177)" fill="white"/>
<rect x="433.629" y="17.5065" width="8.08003" height="840.323" rx="4.04002" fill="white"/>
<rect x="644.25" y="71.7778" width="8.08003" height="840.323" rx="4.04002" transform="rotate(30 644.25 71.7778)" fill="white"/>
<circle cx="436.994" cy="436.995" r="373.701" fill="black"/>
<rect x="144.656" y="738.855" width="13.4667" height="840.323" rx="6.73336" transform="rotate(-135 144.656 738.855)" fill="white"/>
<rect x="135.135" y="144.657" width="13.4667" height="840.323" rx="6.73336" transform="rotate(-45 135.135 144.657)" fill="white"/>
<rect x="33.6445" y="553.39" width="13.4667" height="838.981" rx="6.73336" transform="rotate(-105 33.6445 553.39)" fill="white"/>
<rect x="29.4082" y="334.753" width="13.4667" height="840.323" rx="6.73336" transform="rotate(-75 29.4082 334.753)" fill="white"/>
<rect x="321.572" y="32.9154" width="13.4667" height="841.67" rx="6.73336" transform="rotate(-15 321.572 32.9154)" fill="white"/>
<rect x="539.41" y="29.4302" width="13.4667" height="841.67" rx="6.73336" transform="rotate(15 539.41 29.4302)" fill="white"/>
<circle cx="436.995" cy="436.995" r="414.036" stroke="white" stroke-width="13.5977"/>
<circle cx="436.995" cy="436.995" r="353.501" fill="black"/>
<rect x="82.2031" y="801.308" width="243.748" height="85.4009" transform="rotate(-45 82.2031 801.308)" fill="black"/>
<rect x="187.188" y="729.896" width="499.615" height="134.667" fill="black"/>
<rect x="741.027" y="864.649" width="229.044" height="80.686" transform="rotate(-135 741.027 864.649)" fill="black"/>
<path d="M216.149 685.548C210.623 685.548 206.359 683.677 203.357 679.935C200.398 676.193 198.918 670.667 198.918 663.357C198.918 656.047 200.398 650.521 203.357 646.779C206.359 643.037 210.623 641.165 216.149 641.165C221.675 641.165 225.918 643.037 228.877 646.779C231.879 650.521 233.38 656.047 233.38 663.357C233.38 670.667 231.879 676.193 228.877 679.935C225.918 683.677 221.675 685.548 216.149 685.548ZM216.149 678.303C218.02 678.303 219.543 677.781 220.718 676.737C221.936 675.649 222.85 674.017 223.459 671.842C224.069 669.623 224.373 666.794 224.373 663.357C224.373 659.919 224.069 657.113 223.459 654.937C222.85 652.718 221.936 651.086 220.718 650.042C219.543 648.954 218.02 648.41 216.149 648.41C214.278 648.41 212.733 648.954 211.515 650.042C210.297 651.086 209.383 652.718 208.774 654.937C208.208 657.113 207.925 659.919 207.925 663.357C207.925 666.794 208.208 669.623 208.774 671.842C209.383 674.017 210.297 675.649 211.515 676.737C212.733 677.781 214.278 678.303 216.149 678.303Z" fill="white"/>
<path d="M123.302 540.802V513.519C123.302 512.518 123.302 511.496 123.302 510.452C123.346 509.364 123.389 508.254 123.433 507.123C121.953 508.472 120.3 509.647 118.472 510.647C116.645 511.648 114.774 512.344 112.859 512.736L111.684 505.165C112.685 505.078 113.795 504.795 115.013 504.316C116.275 503.794 117.537 503.185 118.799 502.489C120.104 501.749 121.279 500.988 122.323 500.204C123.411 499.378 124.238 498.551 124.803 497.724H132.114V540.802H123.302ZM158.353 541.454C152.827 541.454 148.562 539.583 145.56 535.841C142.601 532.099 141.122 526.573 141.122 519.263C141.122 511.953 142.601 506.427 145.56 502.685C148.562 498.943 152.827 497.071 158.353 497.071C163.879 497.071 168.121 498.943 171.08 502.685C174.082 506.427 175.584 511.953 175.584 519.263C175.584 526.573 174.082 532.099 171.08 535.841C168.121 539.583 163.879 541.454 158.353 541.454ZM158.353 534.209C160.224 534.209 161.747 533.687 162.921 532.643C164.14 531.555 165.054 529.923 165.663 527.748C166.272 525.529 166.577 522.7 166.577 519.263C166.577 515.825 166.272 513.019 165.663 510.843C165.054 508.624 164.14 506.992 162.921 505.948C161.747 504.86 160.224 504.316 158.353 504.316C156.482 504.316 154.937 504.86 153.719 505.948C152.5 506.992 151.586 508.624 150.977 510.843C150.412 513.019 150.129 515.825 150.129 519.263C150.129 522.7 150.412 525.529 150.977 527.748C151.586 529.923 152.5 531.555 153.719 532.643C154.937 533.687 156.482 534.209 158.353 534.209Z" fill="white"/>
<path d="M108.982 379.201V373.131C112.898 370.477 116.205 368.084 118.903 365.951C121.644 363.776 123.842 361.774 125.495 359.947C127.192 358.076 128.41 356.313 129.15 354.66C129.933 353.006 130.325 351.353 130.325 349.7C130.325 347.698 129.716 346.066 128.497 344.804C127.279 343.499 125.56 342.846 123.341 342.846C120.905 342.846 118.99 343.673 117.598 345.326C116.249 346.98 115.509 349.33 115.378 352.376L107.611 349.438C107.829 346.48 108.612 343.978 109.961 341.933C111.354 339.844 113.225 338.256 115.574 337.168C117.967 336.037 120.709 335.471 123.798 335.471C126.452 335.471 128.737 335.841 130.651 336.58C132.609 337.32 134.219 338.343 135.481 339.648C136.787 340.91 137.766 342.368 138.418 344.021C139.071 345.675 139.397 347.393 139.397 349.177C139.397 351.962 138.701 354.595 137.309 357.075C135.96 359.555 133.871 362.014 131.043 364.45C128.215 366.887 124.625 369.454 120.274 372.152V372.217C120.926 372.174 121.709 372.13 122.623 372.087C123.581 372.043 124.56 372.021 125.56 372.021C126.561 371.978 127.431 371.956 128.171 371.956H140.05V379.201H108.982ZM164.057 379.854C158.531 379.854 154.267 377.983 151.265 374.241C148.306 370.499 146.826 364.972 146.826 357.662C146.826 350.352 148.306 344.826 151.265 341.084C154.267 337.342 158.531 335.471 164.057 335.471C169.583 335.471 173.826 337.342 176.785 341.084C179.787 344.826 181.288 350.352 181.288 357.662C181.288 364.972 179.787 370.499 176.785 374.241C173.826 377.983 169.583 379.854 164.057 379.854ZM164.057 372.609C165.928 372.609 167.451 372.087 168.626 371.042C169.844 369.955 170.758 368.323 171.367 366.147C171.977 363.928 172.281 361.1 172.281 357.662C172.281 354.225 171.977 351.418 171.367 349.243C170.758 347.023 169.844 345.392 168.626 344.347C167.451 343.26 165.928 342.716 164.057 342.716C162.186 342.716 160.642 343.26 159.423 344.347C158.205 345.392 157.291 347.023 156.682 349.243C156.116 351.418 155.833 354.225 155.833 357.662C155.833 361.1 156.116 363.928 156.682 366.147C157.291 368.323 158.205 369.955 159.423 371.042C160.642 372.087 162.186 372.609 164.057 372.609Z" fill="white"/>
<path d="M207.68 235.76C203.373 235.76 199.696 234.868 196.65 233.084C193.648 231.256 191.581 228.646 190.449 225.252L198.934 221.531C199.239 223.098 199.739 224.403 200.436 225.448C201.132 226.448 202.067 227.21 203.242 227.732C204.46 228.254 205.896 228.515 207.55 228.515C209.029 228.515 210.269 228.254 211.27 227.732C212.314 227.21 213.119 226.47 213.685 225.513C214.251 224.555 214.534 223.468 214.534 222.249C214.534 220.944 214.273 219.878 213.75 219.051C213.272 218.224 212.532 217.637 211.531 217.289C210.53 216.897 209.269 216.701 207.746 216.701C207.18 216.701 206.636 216.723 206.114 216.767C205.635 216.767 205.091 216.81 204.482 216.897V210.305C204.83 210.349 205.178 210.392 205.527 210.436C205.918 210.436 206.31 210.436 206.701 210.436C209.138 210.436 210.879 209.957 211.923 209C213.011 207.999 213.555 206.411 213.555 204.235C213.555 202.451 213.011 201.08 211.923 200.123C210.879 199.122 209.377 198.622 207.419 198.622C205.331 198.622 203.677 199.144 202.459 200.188C201.241 201.189 200.392 202.734 199.913 204.823L191.885 201.82C192.407 199.645 193.408 197.773 194.888 196.207C196.411 194.641 198.282 193.444 200.501 192.617C202.72 191.747 205.178 191.312 207.876 191.312C211.096 191.312 213.772 191.812 215.904 192.813C218.08 193.814 219.712 195.184 220.799 196.925C221.931 198.666 222.496 200.667 222.496 202.93C222.496 204.714 222.214 206.237 221.648 207.499C221.126 208.717 220.43 209.761 219.559 210.631C218.733 211.458 217.862 212.089 216.949 212.524C216.035 212.959 215.186 213.22 214.403 213.307V213.503C215.404 213.547 216.426 213.764 217.471 214.156C218.515 214.504 219.472 215.048 220.343 215.788C221.256 216.527 221.996 217.485 222.562 218.66C223.127 219.791 223.41 221.14 223.41 222.706C223.41 225.317 222.714 227.623 221.322 229.625C219.973 231.583 218.123 233.106 215.774 234.194C213.424 235.238 210.726 235.76 207.68 235.76ZM247.486 235.76C241.96 235.76 237.695 233.889 234.693 230.147C231.734 226.405 230.255 220.879 230.255 213.569C230.255 206.258 231.734 200.732 234.693 196.99C237.695 193.248 241.96 191.377 247.486 191.377C253.012 191.377 257.254 193.248 260.213 196.99C263.216 200.732 264.717 206.258 264.717 213.569C264.717 220.879 263.216 226.405 260.213 230.147C257.254 233.889 253.012 235.76 247.486 235.76ZM247.486 228.515C249.357 228.515 250.88 227.993 252.055 226.949C253.273 225.861 254.187 224.229 254.796 222.054C255.405 219.834 255.71 217.006 255.71 213.569C255.71 210.131 255.405 207.325 254.796 205.149C254.187 202.93 253.273 201.298 252.055 200.254C250.88 199.166 249.357 198.622 247.486 198.622C245.615 198.622 244.07 199.166 242.852 200.254C241.633 201.298 240.72 202.93 240.11 205.149C239.545 207.325 239.262 210.131 239.262 213.569C239.262 217.006 239.545 219.834 240.11 222.054C240.72 224.229 241.633 225.861 242.852 226.949C244.07 227.993 245.615 228.515 247.486 228.515Z" fill="white"/>
<path d="M329.258 151.614V141.497H308.241V135.623C308.459 135.188 308.763 134.665 309.155 134.056C309.59 133.404 310.069 132.664 310.591 131.837L326.647 108.536H337.416V134.97H344.4V141.497H337.416V151.614H329.258ZM315.943 134.97H329.323V120.741C329.323 119.828 329.345 118.849 329.388 117.804C329.432 116.76 329.475 115.738 329.519 114.737H329.388C328.91 115.694 328.322 116.738 327.626 117.87C326.973 118.957 326.364 119.936 325.798 120.807L316.791 133.73C316.661 133.948 316.508 134.165 316.334 134.383C316.204 134.557 316.073 134.753 315.943 134.97ZM367.428 152.266C361.902 152.266 357.637 150.395 354.635 146.653C351.676 142.911 350.197 137.385 350.197 130.075C350.197 122.765 351.676 117.239 354.635 113.497C357.637 109.755 361.902 107.883 367.428 107.883C372.954 107.883 377.196 109.755 380.155 113.497C383.157 117.239 384.659 122.765 384.659 130.075C384.659 137.385 383.157 142.911 380.155 146.653C377.196 150.395 372.954 152.266 367.428 152.266ZM367.428 145.021C369.299 145.021 370.822 144.499 371.996 143.455C373.215 142.367 374.129 140.735 374.738 138.56C375.347 136.341 375.652 133.512 375.652 130.075C375.652 126.637 375.347 123.831 374.738 121.655C374.129 119.436 373.215 117.804 371.996 116.76C370.822 115.672 369.299 115.128 367.428 115.128C365.557 115.128 364.012 115.672 362.794 116.76C361.575 117.804 360.661 119.436 360.052 121.655C359.487 123.831 359.204 126.637 359.204 130.075C359.204 133.512 359.487 136.341 360.052 138.56C360.661 140.735 361.575 142.367 362.794 143.455C364.012 144.499 365.557 145.021 367.428 145.021Z" fill="white"/>
<path d="M507.494 152.266C503.709 152.266 500.51 151.483 497.9 149.917C495.332 148.35 493.222 145.957 491.568 142.737L499.662 138.69C500.227 140.605 501.12 142.15 502.338 143.324C503.556 144.499 505.34 145.087 507.69 145.087C509.3 145.087 510.671 144.804 511.802 144.238C512.933 143.673 513.803 142.846 514.413 141.758C515.065 140.67 515.392 139.343 515.392 137.777C515.392 136.21 515.087 134.905 514.478 133.861C513.912 132.773 513.085 131.968 511.998 131.446C510.91 130.88 509.539 130.597 507.886 130.597C506.754 130.597 505.688 130.706 504.688 130.923C503.73 131.141 502.86 131.489 502.077 131.968C501.294 132.403 500.597 132.99 499.988 133.73L492.939 132.425L495.615 108.536H521.657V115.781H502.403L501.098 126.289L500.902 127.138H501.032C501.946 126.094 503.186 125.289 504.753 124.723C506.363 124.157 508.19 123.874 510.235 123.874C513.064 123.874 515.479 124.44 517.48 125.571C519.482 126.703 521.027 128.291 522.114 130.336C523.202 132.338 523.746 134.644 523.746 137.254C523.746 139.735 523.333 141.932 522.506 143.847C521.679 145.718 520.504 147.284 518.981 148.546C517.502 149.764 515.783 150.7 513.825 151.353C511.867 151.962 509.757 152.266 507.494 152.266ZM547.571 152.266C542.045 152.266 537.781 150.395 534.779 146.653C531.82 142.911 530.34 137.385 530.34 130.075C530.34 122.765 531.82 117.239 534.779 113.497C537.781 109.755 542.045 107.883 547.571 107.883C553.097 107.883 557.34 109.755 560.299 113.497C563.301 117.239 564.802 122.765 564.802 130.075C564.802 137.385 563.301 142.911 560.299 146.653C557.34 150.395 553.097 152.266 547.571 152.266ZM547.571 145.021C549.442 145.021 550.965 144.499 552.14 143.455C553.358 142.367 554.272 140.735 554.881 138.56C555.491 136.341 555.795 133.512 555.795 130.075C555.795 126.637 555.491 123.831 554.881 121.655C554.272 119.436 553.358 117.804 552.14 116.76C550.965 115.672 549.442 115.128 547.571 115.128C545.7 115.128 544.155 115.672 542.937 116.76C541.719 117.804 540.805 119.436 540.196 121.655C539.63 123.831 539.347 126.637 539.347 130.075C539.347 133.512 539.63 136.341 540.196 138.56C540.805 140.735 541.719 142.367 542.937 143.455C544.155 144.499 545.7 145.021 547.571 145.021Z" fill="white"/>
<path d="M628.18 191.377C630.486 191.377 632.575 191.703 634.446 192.356C636.317 192.965 637.949 193.966 639.341 195.359C640.777 196.707 641.887 198.513 642.67 200.776L635.099 204.3C634.577 202.603 633.706 201.276 632.488 200.319C631.313 199.318 629.681 198.818 627.593 198.818C626.113 198.818 624.786 199.166 623.611 199.862C622.48 200.558 621.501 201.559 620.674 202.864C619.848 204.17 619.217 205.736 618.782 207.564C618.346 209.348 618.129 211.328 618.129 213.503C618.129 213.634 618.129 213.786 618.129 213.96C618.129 214.091 618.129 214.308 618.129 214.613L618.325 214.874C618.803 213.351 619.63 212.089 620.805 211.088C622.023 210.088 623.372 209.348 624.852 208.869C626.374 208.391 627.876 208.151 629.355 208.151C632.096 208.151 634.511 208.695 636.6 209.783C638.732 210.827 640.386 212.35 641.56 214.352C642.779 216.353 643.388 218.747 643.388 221.531C643.388 224.403 642.735 226.927 641.43 229.103C640.168 231.235 638.362 232.888 636.013 234.063C633.706 235.194 630.943 235.76 627.723 235.76C624.068 235.76 620.892 234.89 618.194 233.149C615.54 231.409 613.473 228.907 611.994 225.643C610.558 222.38 609.84 218.442 609.84 213.83C609.84 208.826 610.645 204.67 612.255 201.363C613.865 198.013 616.062 195.511 618.847 193.857C621.632 192.204 624.743 191.377 628.18 191.377ZM627.593 214.743C626.157 214.743 624.895 215.048 623.807 215.657C622.719 216.223 621.849 217.028 621.196 218.072C620.544 219.073 620.217 220.248 620.217 221.597C620.217 222.946 620.544 224.142 621.196 225.186C621.893 226.231 622.785 227.057 623.873 227.667C625.004 228.276 626.244 228.58 627.593 228.58C629.899 228.58 631.683 227.971 632.945 226.753C634.25 225.535 634.903 223.816 634.903 221.597C634.903 220.204 634.62 218.986 634.054 217.942C633.489 216.897 632.662 216.114 631.574 215.592C630.486 215.026 629.159 214.743 627.593 214.743ZM667.099 235.76C661.573 235.76 657.309 233.889 654.306 230.147C651.347 226.405 649.868 220.879 649.868 213.569C649.868 206.258 651.347 200.732 654.306 196.99C657.309 193.248 661.573 191.377 667.099 191.377C672.625 191.377 676.867 193.248 679.826 196.99C682.829 200.732 684.33 206.258 684.33 213.569C684.33 220.879 682.829 226.405 679.826 230.147C676.867 233.889 672.625 235.76 667.099 235.76ZM667.099 228.515C668.97 228.515 670.493 227.993 671.668 226.949C672.886 225.861 673.8 224.229 674.409 222.054C675.018 219.834 675.323 217.006 675.323 213.569C675.323 210.131 675.018 207.325 674.409 205.149C673.8 202.93 672.886 201.298 671.668 200.254C670.493 199.166 668.97 198.622 667.099 198.622C665.228 198.622 663.683 199.166 662.465 200.254C661.246 201.298 660.333 202.93 659.723 205.149C659.158 207.325 658.875 210.131 658.875 213.569C658.875 217.006 659.158 219.834 659.723 222.054C660.333 224.229 661.246 225.861 662.465 226.949C663.683 227.993 665.228 228.515 667.099 228.515Z" fill="white"/>
<path d="M693.59 336.124H727.725V342.977C724.114 346.588 721.242 350.309 719.11 354.138C716.978 357.967 715.433 361.948 714.476 366.082C713.562 370.216 713.105 374.589 713.105 379.201H704.163C704.163 374.415 704.751 369.824 705.925 365.429C707.144 360.991 708.993 356.77 711.473 352.767C713.997 348.72 717.195 344.848 721.068 341.149L722.895 343.499H693.59V336.124ZM749.093 379.854C743.567 379.854 739.303 377.983 736.3 374.241C733.342 370.499 731.862 364.972 731.862 357.662C731.862 350.352 733.342 344.826 736.3 341.084C739.303 337.342 743.567 335.471 749.093 335.471C754.619 335.471 758.862 337.342 761.821 341.084C764.823 344.826 766.324 350.352 766.324 357.662C766.324 364.972 764.823 370.499 761.821 374.241C758.862 377.983 754.619 379.854 749.093 379.854ZM749.093 372.609C750.964 372.609 752.487 372.087 753.662 371.042C754.88 369.955 755.794 368.323 756.403 366.147C757.012 363.928 757.317 361.1 757.317 357.662C757.317 354.225 757.012 351.418 756.403 349.243C755.794 347.023 754.88 345.392 753.662 344.347C752.487 343.26 750.964 342.716 749.093 342.716C747.222 342.716 745.677 343.26 744.459 344.347C743.241 345.392 742.327 347.023 741.718 349.243C741.152 351.418 740.869 354.225 740.869 357.662C740.869 361.1 741.152 363.928 741.718 366.147C742.327 368.323 743.241 369.955 744.459 371.042C745.677 372.087 747.222 372.609 749.093 372.609Z" fill="white"/>
<path d="M709.787 495.855C712.877 495.855 715.553 496.334 717.815 497.291C720.122 498.205 721.884 499.532 723.102 501.273C724.364 502.97 724.995 505.037 724.995 507.473C724.995 509.736 724.429 511.694 723.298 513.348C722.21 515.001 720.622 516.263 718.533 517.133V517.198C721.057 518.112 723.037 519.439 724.473 521.18C725.909 522.92 726.627 525.118 726.627 527.772C726.627 530.296 725.93 532.471 724.538 534.299C723.189 536.126 721.253 537.562 718.729 538.607C716.249 539.607 713.268 540.108 709.787 540.108C706.35 540.108 703.369 539.607 700.845 538.607C698.365 537.562 696.429 536.126 695.037 534.299C693.688 532.471 693.013 530.296 693.013 527.772C693.013 525.161 693.731 522.986 695.167 521.245C696.603 519.461 698.605 518.112 701.172 517.198V517.133C699.083 516.306 697.473 515.066 696.342 513.413C695.211 511.716 694.645 509.736 694.645 507.473C694.645 505.037 695.254 502.97 696.472 501.273C697.734 499.532 699.518 498.205 701.824 497.291C704.131 496.334 706.785 495.855 709.787 495.855ZM709.853 502.774C707.807 502.774 706.176 503.274 704.957 504.275C703.739 505.276 703.13 506.668 703.13 508.452C703.13 510.236 703.739 511.629 704.957 512.63C706.176 513.63 707.807 514.131 709.853 514.131C711.854 514.131 713.442 513.63 714.617 512.63C715.836 511.629 716.445 510.236 716.445 508.452C716.445 506.668 715.857 505.276 714.682 504.275C713.508 503.274 711.898 502.774 709.853 502.774ZM709.853 533.124C711.506 533.124 712.92 532.885 714.095 532.406C715.27 531.927 716.162 531.209 716.771 530.252C717.424 529.295 717.75 528.164 717.75 526.858C717.75 525.553 717.424 524.421 716.771 523.464C716.162 522.507 715.248 521.789 714.03 521.31C712.855 520.788 711.463 520.527 709.853 520.527C708.243 520.527 706.828 520.788 705.61 521.31C704.392 521.789 703.456 522.507 702.804 523.464C702.151 524.421 701.824 525.553 701.824 526.858C701.824 528.164 702.151 529.295 702.804 530.252C703.456 531.209 704.37 531.927 705.545 532.406C706.763 532.885 708.199 533.124 709.853 533.124ZM750.91 540.108C745.384 540.108 741.119 538.237 738.117 534.495C735.158 530.753 733.679 525.226 733.679 517.916C733.679 510.606 735.158 505.08 738.117 501.338C741.119 497.596 745.384 495.725 750.91 495.725C756.436 495.725 760.678 497.596 763.637 501.338C766.64 505.08 768.141 510.606 768.141 517.916C768.141 525.226 766.64 530.753 763.637 534.495C760.678 538.237 756.436 540.108 750.91 540.108ZM750.91 532.863C752.781 532.863 754.304 532.341 755.479 531.296C756.697 530.209 757.611 528.577 758.22 526.401C758.829 524.182 759.134 521.354 759.134 517.916C759.134 514.479 758.829 511.672 758.22 509.497C757.611 507.278 756.697 505.646 755.479 504.601C754.304 503.514 752.781 502.97 750.91 502.97C749.039 502.97 747.494 503.514 746.276 504.601C745.057 505.646 744.144 507.278 743.534 509.497C742.969 511.672 742.686 514.479 742.686 517.916C742.686 521.354 742.969 524.182 743.534 526.401C744.144 528.577 745.057 530.209 746.276 531.296C747.494 532.341 749.039 532.863 750.91 532.863Z" fill="white"/>
<path d="M625.377 641.165C629.206 641.165 632.426 642.057 635.037 643.841C637.647 645.582 639.605 648.106 640.911 651.413C642.26 654.676 642.934 658.614 642.934 663.226C642.934 668.317 642.216 672.516 640.78 675.823C639.344 679.087 637.299 681.523 634.645 683.133C632.034 684.743 628.967 685.548 625.442 685.548C621.743 685.548 618.545 684.765 615.847 683.199C613.193 681.632 611.192 679.239 609.843 676.019L618.132 672.495C618.611 674.279 619.437 675.714 620.612 676.802C621.83 677.847 623.506 678.369 625.638 678.369C627.335 678.369 628.771 678.042 629.946 677.39C631.12 676.694 632.056 675.714 632.752 674.453C633.492 673.191 634.014 671.646 634.319 669.819C634.667 667.991 634.841 665.946 634.841 663.683C634.841 663.509 634.841 663.357 634.841 663.226C634.841 663.096 634.841 662.944 634.841 662.769H634.58C634.101 664.292 633.274 665.554 632.099 666.555C630.968 667.512 629.663 668.23 628.183 668.709C626.704 669.144 625.181 669.362 623.614 669.362C620.873 669.362 618.436 668.818 616.304 667.73C614.216 666.599 612.562 665.032 611.344 663.031C610.126 660.985 609.516 658.614 609.516 655.916C609.516 652.87 610.169 650.26 611.474 648.084C612.78 645.865 614.607 644.168 616.957 642.993C619.35 641.775 622.157 641.165 625.377 641.165ZM625.442 648.476C623.136 648.476 621.33 649.128 620.025 650.434C618.719 651.696 618.067 653.48 618.067 655.786C618.067 657.831 618.741 659.441 620.09 660.616C621.439 661.747 623.223 662.313 625.442 662.313C626.878 662.313 628.14 662.03 629.228 661.464C630.359 660.898 631.229 660.093 631.838 659.049C632.448 658.005 632.752 656.808 632.752 655.459C632.752 654.023 632.448 652.783 631.838 651.739C631.229 650.695 630.359 649.89 629.228 649.324C628.14 648.758 626.878 648.476 625.442 648.476ZM667.226 685.548C661.7 685.548 657.436 683.677 654.434 679.935C651.475 676.193 649.995 670.667 649.995 663.357C649.995 656.047 651.475 650.521 654.434 646.779C657.436 643.037 661.7 641.165 667.226 641.165C672.752 641.165 676.995 643.037 679.954 646.779C682.956 650.521 684.457 656.047 684.457 663.357C684.457 670.667 682.956 676.193 679.954 679.935C676.995 683.677 672.752 685.548 667.226 685.548ZM667.226 678.303C669.097 678.303 670.62 677.781 671.795 676.737C673.014 675.649 673.927 674.017 674.536 671.842C675.146 669.623 675.45 666.794 675.45 663.357C675.45 659.919 675.146 657.113 674.536 654.937C673.927 652.718 673.014 651.086 671.795 650.042C670.62 648.954 669.097 648.41 667.226 648.41C665.355 648.41 663.811 648.954 662.592 650.042C661.374 651.086 660.46 652.718 659.851 654.937C659.285 657.113 659.002 659.919 659.002 663.357C659.002 666.794 659.285 669.623 659.851 671.842C660.46 674.017 661.374 675.649 662.592 676.737C663.811 677.781 665.355 678.303 667.226 678.303Z" fill="white"/>
<circle cx="438.342" cy="437.236" r="218.834" fill="#404040" fill-opacity="0.25" stroke="white" stroke-opacity="0.5" stroke-width="5.43907"/>
<line x1="267.984" y1="497.15" x2="604.65" y2="496.101" stroke="#808080" stroke-width="2.71954"/>
</g>
</svg>
