<svg width="875" height="802" viewBox="0 0 875 802" fill="none" xmlns="http://www.w3.org/2000/svg">
<mask id="mask0_172_511" style="mask-type:alpha" maskUnits="userSpaceOnUse" x="0" y="0" width="875" height="802">
<rect width="875" height="801.991" fill="#C4C4C4"/>
</mask>
<g mask="url(#mask0_172_511)">
<rect width="875.337" height="875.337" fill="black"/>
<rect x="412.988" y="18.2233" width="5.38669" height="840.323" rx="2.69334" transform="rotate(-3 412.988 18.2233)" fill="white"/>
<rect x="391.07" y="20.0896" width="5.38669" height="840.323" rx="2.69334" transform="rotate(-6 391.07 20.0896)" fill="white"/>
<rect x="369.281" y="23.1006" width="5.38669" height="840.323" rx="2.69334" transform="rotate(-9 369.281 23.1006)" fill="white"/>
<rect x="522.391" y="26.1281" width="5.38669" height="840.323" rx="2.69334" transform="rotate(12 522.391 26.1281)" fill="white"/>
<rect x="500.736" y="22.2583" width="5.38669" height="840.323" rx="2.69334" transform="rotate(9 500.736 22.2583)" fill="white"/>
<rect x="478.908" y="19.5269" width="5.38669" height="840.323" rx="2.69334" transform="rotate(6 478.908 19.5269)" fill="white"/>
<rect x="456.969" y="17.9415" width="5.38669" height="840.323" rx="2.69334" transform="rotate(3 456.969 17.9415)" fill="white"/>
<rect x="347.678" y="27.248" width="5.38669" height="840.323" rx="2.69334" transform="rotate(-12 347.678 27.248)" fill="white"/>
<rect x="206.572" y="86.7576" width="5.38669" height="840.323" rx="2.69334" transform="rotate(-33 206.572 86.7576)" fill="white"/>
<rect x="188.525" y="99.333" width="5.38669" height="840.323" rx="2.69334" transform="rotate(-36 188.525 99.333)" fill="white"/>
<rect x="171.158" y="112.836" width="5.38669" height="840.323" rx="2.69334" transform="rotate(-39 171.158 112.836)" fill="white"/>
<rect x="305.27" y="38.9028" width="5.38669" height="840.323" rx="2.69334" transform="rotate(-18 305.27 38.9028)" fill="white"/>
<rect x="284.58" y="46.3785" width="5.38669" height="840.323" rx="2.69334" transform="rotate(-21 284.58 46.3785)" fill="white"/>
<rect x="264.312" y="54.9266" width="5.38669" height="840.323" rx="2.69334" transform="rotate(-24 264.312 54.9266)" fill="white"/>
<rect x="244.518" y="64.524" width="5.38669" height="840.323" rx="2.69334" transform="rotate(-27 244.518 64.524)" fill="white"/>
<rect x="154.523" y="127.229" width="5.38669" height="840.323" rx="2.69334" transform="rotate(-42 154.523 127.229)" fill="white"/>
<rect x="626.018" y="62.0789" width="5.38669" height="840.323" rx="2.69334" transform="rotate(27 626.018 62.0789)" fill="white"/>
<rect x="606.102" y="52.7362" width="5.38669" height="840.323" rx="2.69334" transform="rotate(24 606.102 52.7362)" fill="white"/>
<rect x="585.727" y="44.4484" width="5.38669" height="840.323" rx="2.69334" transform="rotate(21 585.727 44.4484)" fill="white"/>
<rect x="716.811" y="123.625" width="5.38669" height="840.323" rx="2.69334" transform="rotate(42 716.811 123.625)" fill="white"/>
<rect x="699.992" y="109.447" width="5.38669" height="840.323" rx="2.69334" transform="rotate(39 699.992 109.447)" fill="white"/>
<rect x="682.455" y="96.1676" width="5.38669" height="840.323" rx="2.69334" transform="rotate(36 682.455 96.1676)" fill="white"/>
<rect x="664.246" y="83.8245" width="5.38669" height="840.323" rx="2.69334" transform="rotate(33 664.246 83.8245)" fill="white"/>
<rect x="564.943" y="37.2386" width="5.38669" height="840.323" rx="2.69334" transform="rotate(18 564.943 37.2386)" fill="white"/>
<rect x="788.578" y="206.573" width="5.38669" height="840.323" rx="2.69334" transform="rotate(57 788.578 206.573)" fill="white"/>
<rect x="776.002" y="188.525" width="5.38669" height="840.323" rx="2.69334" transform="rotate(54 776.002 188.525)" fill="white"/>
<rect x="762.5" y="171.159" width="5.38669" height="840.323" rx="2.69334" transform="rotate(51 762.5 171.159)" fill="white"/>
<rect x="836.434" y="305.27" width="5.38669" height="840.323" rx="2.69334" transform="rotate(72 836.434 305.27)" fill="white"/>
<rect x="828.957" y="284.581" width="5.38669" height="840.323" rx="2.69334" transform="rotate(69 828.957 284.581)" fill="white"/>
<rect x="820.408" y="264.313" width="5.38669" height="840.323" rx="2.69334" transform="rotate(66 820.408 264.313)" fill="white"/>
<rect x="810.812" y="244.519" width="5.38669" height="840.323" rx="2.69334" transform="rotate(63 810.812 244.519)" fill="white"/>
<rect x="748.107" y="154.524" width="5.38669" height="840.323" rx="2.69334" transform="rotate(48 748.107 154.524)" fill="white"/>
<rect x="856.182" y="413.038" width="5.38669" height="839.39" rx="2.69334" transform="rotate(87 856.182 413.038)" fill="white"/>
<rect x="854.395" y="391.16" width="5.38669" height="839.467" rx="2.69334" transform="rotate(84 854.395 391.16)" fill="white"/>
<rect x="851.893" y="369.334" width="5.38669" height="839.977" rx="2.69334" transform="rotate(81 851.893 369.334)" fill="white"/>
<rect x="847.891" y="522.11" width="5.38669" height="838.978" rx="2.69334" transform="rotate(102 847.891 522.11)" fill="white"/>
<rect x="851.35" y="500.462" width="5.38669" height="838.573" rx="2.69334" transform="rotate(99 851.35 500.462)" fill="white"/>
<rect x="854.598" y="478.781" width="5.38669" height="839.105" rx="2.69334" transform="rotate(96 854.598 478.781)" fill="white"/>
<rect x="855.188" y="456.852" width="5.38669" height="838.114" rx="2.69334" transform="rotate(93 855.188 456.852)" fill="white"/>
<rect x="847.654" y="347.77" width="5.38669" height="839.879" rx="2.69334" transform="rotate(78 847.654 347.77)" fill="white"/>
<rect x="812.025" y="625.39" width="5.38669" height="838.941" rx="2.69334" transform="rotate(117 812.025 625.39)" fill="white"/>
<rect x="821.85" y="605.769" width="5.38669" height="839.502" rx="2.69334" transform="rotate(114 821.85 605.769)" fill="white"/>
<rect x="830.109" y="585.428" width="5.38669" height="839.491" rx="2.69334" transform="rotate(111 830.109 585.428)" fill="white"/>
<rect x="750.986" y="716.157" width="5.38669" height="839.349" rx="2.69334" transform="rotate(132 750.986 716.157)" fill="white"/>
<rect x="764.375" y="698.764" width="5.38669" height="838.373" rx="2.69334" transform="rotate(129 764.375 698.764)" fill="white"/>
<rect x="778.223" y="681.767" width="5.38669" height="839.154" rx="2.69334" transform="rotate(126 778.223 681.767)" fill="white"/>
<rect x="790.248" y="663.425" width="5.38669" height="838.817" rx="2.69334" transform="rotate(123 790.248 663.425)" fill="white"/>
<rect x="836.926" y="564.563" width="5.38669" height="839.093" rx="2.69334" transform="rotate(108 836.926 564.563)" fill="white"/>
<circle cx="436.994" cy="436.995" r="387.168" fill="black"/>
<rect x="799.52" y="224.089" width="8.08003" height="840.323" rx="4.04002" transform="rotate(60 799.52 224.089)" fill="white"/>
<rect x="856.484" y="433.628" width="8.08003" height="838.977" rx="4.04001" transform="rotate(90 856.484 433.628)" fill="white"/>
<rect x="802.92" y="643.881" width="8.08003" height="839.584" rx="4.04002" transform="rotate(120 802.92 643.881)" fill="white"/>
<rect x="224.088" y="75.8177" width="8.08003" height="840.323" rx="4.04002" transform="rotate(-30 224.088 75.8177)" fill="white"/>
<rect x="433.629" y="17.5065" width="8.08003" height="840.323" rx="4.04002" fill="white"/>
<rect x="644.25" y="71.7778" width="8.08003" height="840.323" rx="4.04002" transform="rotate(30 644.25 71.7778)" fill="white"/>
<circle cx="436.994" cy="436.995" r="373.701" fill="black"/>
<rect x="144.656" y="738.855" width="13.4667" height="840.323" rx="6.73336" transform="rotate(-135 144.656 738.855)" fill="white"/>
<rect x="135.135" y="144.657" width="13.4667" height="840.323" rx="6.73336" transform="rotate(-45 135.135 144.657)" fill="white"/>
<rect x="33.6445" y="553.39" width="13.4667" height="838.981" rx="6.73336" transform="rotate(-105 33.6445 553.39)" fill="white"/>
<rect x="29.4082" y="334.753" width="13.4667" height="840.323" rx="6.73336" transform="rotate(-75 29.4082 334.753)" fill="white"/>
<rect x="321.572" y="32.9154" width="13.4667" height="841.67" rx="6.73336" transform="rotate(-15 321.572 32.9154)" fill="white"/>
<rect x="539.41" y="29.4302" width="13.4667" height="841.67" rx="6.73336" transform="rotate(15 539.41 29.4302)" fill="white"/>
<circle cx="436.995" cy="436.995" r="414.036" stroke="white" stroke-width="13.5977"/>
<circle cx="436.995" cy="436.995" r="353.501" fill="black"/>
<rect x="82.2031" y="801.308" width="243.748" height="85.4009" transform="rotate(-45 82.2031 801.308)" fill="black"/>
<rect x="187.188" y="729.896" width="499.615" height="134.667" fill="black"/>
<rect x="741.027" y="864.649" width="229.044" height="80.686" transform="rotate(-135 741.027 864.649)" fill="black"/>
<circle cx="438.342" cy="437.236" r="218.834" fill="#404040" fill-opacity="0.25" stroke="white" stroke-opacity="0.5" stroke-width="5.43907"/>
<line x1="267.984" y1="497.15" x2="604.65" y2="496.101" stroke="#808080" stroke-width="2.71954"/>
</g>
</svg>
