<svg width="304" height="67" viewBox="0 0 304 67" fill="none" xmlns="http://www.w3.org/2000/svg">
<line x1="299" y1="5" x2="14" y2="5" stroke="white" stroke-width="10" stroke-linecap="round"/>
<line x1="14" y1="62" x2="299" y2="62" stroke="white" stroke-width="10" stroke-linecap="round"/>
<line x1="5" y1="18" x2="5" y2="49" stroke="white" stroke-width="10" stroke-linecap="round"/>
<line x1="14" y1="62" x2="14" y2="49" stroke="white" stroke-width="10" stroke-linecap="round"/>
<line x1="299" y1="5" x2="299" y2="62" stroke="white" stroke-width="10" stroke-linecap="round"/>
<line x1="5" y1="49" x2="14" y2="49" stroke="white" stroke-width="10" stroke-linecap="round"/>
<line x1="14" y1="18" x2="5" y2="18" stroke="white" stroke-width="10" stroke-linecap="round"/>
<line x1="14" y1="17.9999" x2="14" y2="4.99994" stroke="white" stroke-width="10" stroke-linecap="round"/>
<line x1="6.00005" y1="43.9852" x2="6.15286" y2="22.9858" stroke="white" stroke-width="4"/>
<line x1="34.7375" y1="57" x2="34.7375" y2="10" stroke="white" stroke-width="4"/>
<line x1="63.3223" y1="57" x2="63.3223" y2="10" stroke="white" stroke-width="4"/>
<line x1="91.907" y1="57" x2="91.907" y2="10" stroke="white" stroke-width="4"/>
<line x1="120.492" y1="57" x2="120.492" y2="10" stroke="white" stroke-width="4"/>
<line x1="149.076" y1="57" x2="149.076" y2="10" stroke="white" stroke-width="4"/>
<line x1="177.661" y1="57" x2="177.661" y2="10" stroke="white" stroke-width="4"/>
<line x1="206.246" y1="57" x2="206.246" y2="10" stroke="white" stroke-width="4"/>
<line x1="234.831" y1="57" x2="234.831" y2="10" stroke="white" stroke-width="4"/>
<line x1="263.415" y1="57" x2="263.415" y2="10" stroke="white" stroke-width="4"/>
<line x1="292" y1="57" x2="292" y2="10" stroke="white" stroke-width="4"/>
</svg>
